<svg id="visual" viewBox="0 0 960 540" width="960" height="540" xmlns="http://www.w3.org/2000/svg" xmlns:xlink="http://www.w3.org/1999/xlink" version="1.1"><rect x="0" y="0" width="960" height="540" fill="#181818"></rect><path d="M0 360L17.8 349.5C35.7 339 71.3 318 106.8 311.8C142.3 305.7 177.7 314.3 213.2 319C248.7 323.7 284.3 324.3 320 319.7C355.7 315 391.3 305 426.8 301.7C462.3 298.3 497.7 301.7 533.2 315.2C568.7 328.7 604.3 352.3 640 353.2C675.7 354 711.3 332 746.8 318.2C782.3 304.3 817.7 298.7 853.2 305.3C888.7 312 924.3 331 942.2 340.5L960 350L960 0L942.2 0C924.3 0 888.7 0 853.2 0C817.7 0 782.3 0 746.8 0C711.3 0 675.7 0 640 0C604.3 0 568.7 0 533.2 0C497.7 0 462.3 0 426.8 0C391.3 0 355.7 0 320 0C284.3 0 248.7 0 213.2 0C177.7 0 142.3 0 106.8 0C71.3 0 35.7 0 17.8 0L0 0Z" fill="#282828"></path><path d="M0 243L17.8 256.3C35.7 269.7 71.3 296.3 106.8 304.3C142.3 312.3 177.7 301.7 213.2 293.2C248.7 284.7 284.3 278.3 320 278.7C355.7 279 391.3 286 426.8 286.8C462.3 287.7 497.7 282.3 533.2 286.7C568.7 291 604.3 305 640 300.8C675.7 296.7 711.3 274.3 746.8 274.7C782.3 275 817.7 298 853.2 299.7C888.7 301.3 924.3 281.7 942.2 271.8L960 262L960 0L942.2 0C924.3 0 888.7 0 853.2 0C817.7 0 782.3 0 746.8 0C711.3 0 675.7 0 640 0C604.3 0 568.7 0 533.2 0C497.7 0 462.3 0 426.8 0C391.3 0 355.7 0 320 0C284.3 0 248.7 0 213.2 0C177.7 0 142.3 0 106.8 0C71.3 0 35.7 0 17.8 0L0 0Z" fill="#1b1b1b"></path><path d="M0 203L17.8 201.8C35.7 200.7 71.3 198.3 106.8 202C142.3 205.7 177.7 215.3 213.2 224.7C248.7 234 284.3 243 320 238.3C355.7 233.7 391.3 215.3 426.8 216.5C462.3 217.7 497.7 238.3 533.2 248.7C568.7 259 604.3 259 640 248.3C675.7 237.7 711.3 216.3 746.8 216.7C782.3 217 817.7 239 853.2 248.5C888.7 258 924.3 255 942.2 253.5L960 252L960 0L942.2 0C924.3 0 888.7 0 853.2 0C817.7 0 782.3 0 746.8 0C711.3 0 675.7 0 640 0C604.3 0 568.7 0 533.2 0C497.7 0 462.3 0 426.8 0C391.3 0 355.7 0 320 0C284.3 0 248.7 0 213.2 0C177.7 0 142.3 0 106.8 0C71.3 0 35.7 0 17.8 0L0 0Z" fill="#0c0c0c"></path><path d="M0 163L17.8 169.8C35.7 176.7 71.3 190.3 106.8 189C142.3 187.7 177.7 171.3 213.2 160.2C248.7 149 284.3 143 320 149.8C355.7 156.7 391.3 176.3 426.8 183.3C462.3 190.3 497.7 184.7 533.2 180C568.7 175.3 604.3 171.7 640 166C675.7 160.3 711.3 152.7 746.8 148.8C782.3 145 817.7 145 853.2 155.3C888.7 165.7 924.3 186.3 942.2 196.7L960 207L960 0L942.2 0C924.3 0 888.7 0 853.2 0C817.7 0 782.3 0 746.8 0C711.3 0 675.7 0 640 0C604.3 0 568.7 0 533.2 0C497.7 0 462.3 0 426.8 0C391.3 0 355.7 0 320 0C284.3 0 248.7 0 213.2 0C177.7 0 142.3 0 106.8 0C71.3 0 35.7 0 17.8 0L0 0Z" fill="#000000"></path><path d="M0 87L17.8 89.2C35.7 91.3 71.3 95.7 106.8 101.3C142.3 107 177.7 114 213.2 116.2C248.7 118.3 284.3 115.7 320 116C355.7 116.3 391.3 119.7 426.8 123C462.3 126.3 497.7 129.7 533.2 123.8C568.7 118 604.3 103 640 104.3C675.7 105.7 711.3 123.3 746.8 124.8C782.3 126.3 817.7 111.7 853.2 105.7C888.7 99.7 924.3 102.3 942.2 103.7L960 105L960 0L942.2 0C924.3 0 888.7 0 853.2 0C817.7 0 782.3 0 746.8 0C711.3 0 675.7 0 640 0C604.3 0 568.7 0 533.2 0C497.7 0 462.3 0 426.8 0C391.3 0 355.7 0 320 0C284.3 0 248.7 0 213.2 0C177.7 0 142.3 0 106.8 0C71.3 0 35.7 0 17.8 0L0 0Z" fill="#000000"></path><path d="M0 81L17.8 72.8C35.7 64.7 71.3 48.3 106.8 47.7C142.3 47 177.7 62 213.2 62.7C248.7 63.3 284.3 49.7 320 50.2C355.7 50.7 391.3 65.3 426.8 67.7C462.3 70 497.7 60 533.2 54.3C568.7 48.7 604.3 47.3 640 48.3C675.7 49.3 711.3 52.7 746.8 59.7C782.3 66.7 817.7 77.3 853.2 78.3C888.7 79.3 924.3 70.7 942.2 66.3L960 62L960 0L942.2 0C924.3 0 888.7 0 853.2 0C817.7 0 782.3 0 746.8 0C711.3 0 675.7 0 640 0C604.3 0 568.7 0 533.2 0C497.7 0 462.3 0 426.8 0C391.3 0 355.7 0 320 0C284.3 0 248.7 0 213.2 0C177.7 0 142.3 0 106.8 0C71.3 0 35.7 0 17.8 0L0 0Z" fill="#000000"></path></svg>