<svg id="visual" viewBox="0 0 900 900" width="900" height="900" xmlns="http://www.w3.org/2000/svg" xmlns:xlink="http://www.w3.org/1999/xlink" version="1.1"><rect x="0" y="0" width="900" height="900" fill="#181818"></rect><path d="M0 601L16.7 583.5C33.3 566 66.7 531 100 520.5C133.3 510 166.7 524 200 531.7C233.3 539.3 266.7 540.7 300 533C333.3 525.3 366.7 508.7 400 503.3C433.3 498 466.7 504 500 526.5C533.3 549 566.7 588 600 589.2C633.3 590.3 666.7 553.7 700 530.7C733.3 507.7 766.7 498.3 800 509.5C833.3 520.7 866.7 552.3 883.3 568.2L900 584L900 0L883.3 0C866.7 0 833.3 0 800 0C766.7 0 733.3 0 700 0C666.7 0 633.3 0 600 0C566.7 0 533.3 0 500 0C466.7 0 433.3 0 400 0C366.7 0 333.3 0 300 0C266.7 0 233.3 0 200 0C166.7 0 133.3 0 100 0C66.7 0 33.3 0 16.7 0L0 0Z" fill="#282828"></path><path d="M0 405L16.7 427.3C33.3 449.7 66.7 494.3 100 507.8C133.3 521.3 166.7 503.7 200 489.3C233.3 475 266.7 464 300 464.5C333.3 465 366.7 477 400 478.7C433.3 480.3 466.7 471.7 500 478.8C533.3 486 566.7 509 600 501.8C633.3 494.7 666.7 457.3 700 457.8C733.3 458.3 766.7 496.7 800 499.5C833.3 502.3 866.7 469.7 883.3 453.3L900 437L900 0L883.3 0C866.7 0 833.3 0 800 0C766.7 0 733.3 0 700 0C666.7 0 633.3 0 600 0C566.7 0 533.3 0 500 0C466.7 0 433.3 0 400 0C366.7 0 333.3 0 300 0C266.7 0 233.3 0 200 0C166.7 0 133.3 0 100 0C66.7 0 33.3 0 16.7 0L0 0Z" fill="#1b1b1b"></path><path d="M0 340L16.7 338C33.3 336 66.7 332 100 338C133.3 344 166.7 360 200 375.3C233.3 390.7 266.7 405.3 300 397.3C333.3 389.3 366.7 358.7 400 360.8C433.3 363 466.7 398 500 415.5C533.3 433 566.7 433 600 415.2C633.3 397.3 666.7 361.7 700 362.2C733.3 362.7 766.7 399.3 800 415C833.3 430.7 866.7 425.3 883.3 422.7L900 420L900 0L883.3 0C866.7 0 833.3 0 800 0C766.7 0 733.3 0 700 0C666.7 0 633.3 0 600 0C566.7 0 533.3 0 500 0C466.7 0 433.3 0 400 0C366.7 0 333.3 0 300 0C266.7 0 233.3 0 200 0C166.7 0 133.3 0 100 0C66.7 0 33.3 0 16.7 0L0 0Z" fill="#0c0c0c"></path><path d="M0 273L16.7 284.3C33.3 295.7 66.7 318.3 100 315.8C133.3 313.3 166.7 285.7 200 267C233.3 248.3 266.7 238.7 300 250.2C333.3 261.7 366.7 294.3 400 306C433.3 317.7 466.7 308.3 500 300.7C533.3 293 566.7 287 600 277.5C633.3 268 666.7 255 700 248.5C733.3 242 766.7 242 800 259.2C833.3 276.3 866.7 310.7 883.3 327.8L900 345L900 0L883.3 0C866.7 0 833.3 0 800 0C766.7 0 733.3 0 700 0C666.7 0 633.3 0 600 0C566.7 0 533.3 0 500 0C466.7 0 433.3 0 400 0C366.7 0 333.3 0 300 0C266.7 0 233.3 0 200 0C166.7 0 133.3 0 100 0C66.7 0 33.3 0 16.7 0L0 0Z" fill="#000000"></path><path d="M0 146L16.7 149.5C33.3 153 66.7 160 100 169.5C133.3 179 166.7 191 200 194.5C233.3 198 266.7 193 300 193.5C333.3 194 366.7 200 400 205.8C433.3 211.7 466.7 217.3 500 207.5C533.3 197.7 566.7 172.3 600 174.5C633.3 176.7 666.7 206.3 700 208.8C733.3 211.3 766.7 186.7 800 176.5C833.3 166.3 866.7 170.7 883.3 172.8L900 175L900 0L883.3 0C866.7 0 833.3 0 800 0C766.7 0 733.3 0 700 0C666.7 0 633.3 0 600 0C566.7 0 533.3 0 500 0C466.7 0 433.3 0 400 0C366.7 0 333.3 0 300 0C266.7 0 233.3 0 200 0C166.7 0 133.3 0 100 0C66.7 0 33.3 0 16.7 0L0 0Z" fill="#000000"></path><path d="M0 135L16.7 121.7C33.3 108.3 66.7 81.7 100 80.7C133.3 79.7 166.7 104.3 200 105.3C233.3 106.3 266.7 83.7 300 84.5C333.3 85.3 366.7 109.7 400 113.7C433.3 117.7 466.7 101.3 500 91.8C533.3 82.3 566.7 79.7 600 81.2C633.3 82.7 666.7 88.3 700 100.2C733.3 112 766.7 130 800 131.7C833.3 133.3 866.7 118.7 883.3 111.3L900 104L900 0L883.3 0C866.7 0 833.3 0 800 0C766.7 0 733.3 0 700 0C666.7 0 633.3 0 600 0C566.7 0 533.3 0 500 0C466.7 0 433.3 0 400 0C366.7 0 333.3 0 300 0C266.7 0 233.3 0 200 0C166.7 0 133.3 0 100 0C66.7 0 33.3 0 16.7 0L0 0Z" fill="#000000"></path></svg>